<?xml version="1.0" standalone="no"?>
<!DOCTYPE svg PUBLIC "-//W3C//DTD SVG 20010904//EN"
 "http://www.w3.org/TR/2001/REC-SVG-20010904/DTD/svg10.dtd">
<svg version="1.0" xmlns="http://www.w3.org/2000/svg"
 width="260.000000pt" height="260.000000pt" viewBox="0 0 260.000000 260.000000"
 preserveAspectRatio="xMidYMid meet">
<metadata>
Created by potrace 1.11, written by Peter Selinger 2001-2013
</metadata>
<g transform="translate(0.000000,260.000000) scale(0.100000,-0.100000)"
fill="#000000" stroke="none">
<path d="M988 2530 c-70 -22 -156 -68 -137 -74 8 -2 32 -7 54 -11 22 -4 46
-11 53 -17 6 -6 12 -8 12 -5 0 7 75 -33 188 -100 41 -24 77 -43 82 -43 4 0 13
-7 20 -15 7 -8 16 -13 20 -10 4 3 11 -2 14 -11 4 -9 13 -14 21 -10 8 3 15 1
15 -4 0 -5 19 -19 43 -31 23 -12 45 -27 49 -33 5 -6 8 -7 8 -1 0 6 3 6 8 0 4
-6 18 -16 32 -23 14 -6 59 -32 100 -57 41 -25 91 -53 110 -63 19 -9 37 -19 40
-23 3 -3 50 -31 106 -63 134 -77 193 -135 240 -235 34 -76 38 -102 39 -336 1
-171 4 -219 14 -217 7 1 59 30 116 64 l104 61 -3 236 c-3 260 -9 288 -71 386
-28 43 -105 125 -105 111 0 -3 -12 6 -26 19 -15 14 -33 25 -40 25 -8 0 -14 5
-14 12 0 6 -3 9 -6 5 -3 -3 -30 10 -59 29 -30 19 -59 34 -65 34 -5 0 -10 5
-10 10 0 6 -5 10 -10 10 -6 0 -27 11 -48 23 -20 13 -57 35 -82 49 -25 14 -65
37 -90 52 -25 15 -53 29 -62 33 -10 3 -18 10 -18 15 0 5 -4 6 -10 3 -5 -3 -10
-1 -10 5 0 6 -4 8 -10 5 -5 -3 -10 -2 -10 2 0 5 -19 19 -42 31 -24 12 -59 32
-78 44 -76 46 -137 80 -175 97 -99 44 -208 52 -307 21z"/>
<path d="M586 2283 c-2 -2 -10 -6 -18 -7 -111 -19 -238 -117 -294 -227 -51
-103 -51 -101 -52 -660 l0 -524 25 -70 c30 -84 65 -137 124 -188 46 -40 170
-117 188 -117 6 0 11 -3 11 -7 0 -5 18 -17 40 -27 22 -11 40 -23 40 -28 0 -4
9 -8 20 -8 11 0 20 -4 20 -10 0 -5 4 -10 10 -10 5 0 43 -20 83 -45 41 -25 80
-45 86 -45 6 0 11 -4 11 -10 0 -5 6 -10 14 -10 7 0 19 -7 26 -15 7 -9 15 -13
17 -11 3 3 36 -15 73 -39 37 -24 71 -41 74 -38 3 4 6 1 6 -5 0 -7 7 -12 15
-12 8 0 15 -4 15 -8 0 -4 12 -13 28 -19 15 -7 51 -26 81 -43 76 -44 141 -58
242 -55 74 3 98 8 161 38 94 43 175 122 217 212 41 86 43 103 45 302 l2 171
-28 -14 c-15 -8 -31 -14 -34 -13 -4 0 -10 -4 -13 -9 -6 -9 -55 -39 -113 -69
-15 -8 -30 -18 -33 -23 -6 -9 -117 47 -123 62 -2 4 -9 8 -16 8 -8 0 -26 10
-42 23 -16 12 -31 21 -34 21 -10 -2 -50 19 -50 28 0 4 -4 8 -9 8 -5 0 -49 23
-98 51 -48 29 -106 61 -128 73 -22 12 -41 24 -43 29 -2 4 -8 7 -13 7 -23 0
-118 93 -155 151 -25 40 -47 98 -59 157 -6 28 -10 450 -5 477 1 6 1 15 0 20
-4 15 -1 188 3 191 6 6 57 -20 57 -28 0 -5 5 -8 11 -8 6 0 63 -31 127 -69 64
-38 133 -78 152 -88 19 -11 63 -37 97 -57 34 -20 66 -36 72 -36 6 0 11 -4 11
-9 0 -5 9 -12 19 -16 27 -8 112 -92 142 -140 63 -100 70 -140 71 -417 l0 -197
27 14 c14 8 66 39 116 68 l90 53 -1 200 c-1 205 -4 272 -13 289 -3 6 -6 15 -7
22 -5 28 -59 123 -93 160 -36 40 -121 109 -121 99 0 -3 -16 6 -36 19 -19 13
-44 27 -55 30 -10 4 -19 11 -19 16 0 6 -4 7 -10 4 -5 -3 -10 -3 -10 2 0 4 -13
14 -30 21 -16 7 -45 24 -64 37 -19 13 -37 21 -40 17 -3 -3 -6 0 -6 6 0 7 -5
12 -10 12 -6 0 -27 11 -48 23 -20 13 -57 35 -82 49 -25 14 -85 48 -133 77 -49
28 -93 51 -98 51 -5 0 -9 3 -9 8 0 4 -10 12 -23 18 -12 6 -48 25 -79 43 -90
50 -136 63 -230 66 -48 2 -89 1 -92 -2z m81 -691 c0 -252 3 -464 5 -472 3 -8
8 -32 13 -52 4 -21 11 -38 15 -38 5 0 11 -14 15 -30 4 -17 11 -30 16 -30 5 0
9 -6 9 -13 0 -26 157 -167 186 -167 3 0 51 -27 106 -60 54 -33 100 -60 102
-60 2 0 46 -25 97 -56 52 -32 100 -57 107 -57 6 0 12 -4 12 -9 0 -5 8 -12 18
-16 41 -16 262 -148 262 -156 0 -18 -79 -81 -114 -92 -31 -10 -71 -10 -131 -1
-12 2 -32 11 -45 20 -14 9 -28 17 -33 17 -5 0 -15 7 -24 15 -8 8 -19 13 -24
10 -5 -4 -9 -1 -9 4 0 6 -15 18 -32 26 -18 8 -55 29 -83 45 -27 17 -59 35 -70
40 -11 6 -41 23 -66 38 -25 15 -112 65 -194 112 -144 82 -275 185 -275 216 0
7 -8 18 -17 23 -10 6 -15 11 -11 11 4 0 -2 20 -13 45 -11 25 -23 56 -26 68 -3
12 -6 220 -7 462 -3 486 -2 493 59 552 18 17 31 34 29 37 -2 3 -1 4 3 1 3 -3
11 0 18 5 13 11 88 29 95 23 3 -3 6 -210 7 -461z"/>
<path d="M2290 998 c-19 -11 -60 -35 -90 -51 -105 -57 -95 -28 -96 -280 -1
-198 -3 -228 -22 -279 l-20 -58 40 23 c77 42 191 169 197 220 0 4 8 22 18 40
14 26 17 67 20 220 2 103 0 187 -4 187 -5 0 -24 -10 -43 -22z"/>
</g>
</svg>
